<svg width="10" height="14" viewBox="0 0 10 14" fill="none" xmlns="http://www.w3.org/2000/svg">
<path d="M4.05417 9.90417L7.35 6.60833L6.51875 5.77708L4.05417 8.24167L2.82917 7.01667L1.99792 7.84792L4.05417 9.90417ZM4.66667 13.6667C3.31528 13.3264 2.19965 12.551 1.31979 11.3406C0.439931 10.1302 0 8.78611 0 7.30833V3.75L4.66667 2L9.33333 3.75V7.30833C9.33333 8.78611 8.8934 10.1302 8.01354 11.3406C7.13368 12.551 6.01806 13.3264 4.66667 13.6667ZM4.66667 12.4417C5.67778 12.1208 6.51389 11.4792 7.175 10.5167C7.83611 9.55417 8.16667 8.48472 8.16667 7.30833V4.55208L4.66667 3.23958L1.16667 4.55208V7.30833C1.16667 8.48472 1.49722 9.55417 2.15833 10.5167C2.81944 11.4792 3.65556 12.1208 4.66667 12.4417Z" fill="#031D4E"/>
</svg>
