<svg width="14" height="13" viewBox="0 0 14 13" fill="none" xmlns="http://www.w3.org/2000/svg">
<path d="M11.9583 5.83333L11.5938 5.03125L10.7917 4.66667L11.5938 4.30208L11.9583 3.5L12.3229 4.30208L13.125 4.66667L12.3229 5.03125L11.9583 5.83333ZM10.2083 3.5L9.65417 2.30417L8.45833 1.75L9.65417 1.19583L10.2083 0L10.7625 1.19583L11.9583 1.75L10.7625 2.30417L10.2083 3.5ZM4.375 12.8333C4.05417 12.8333 3.77951 12.7191 3.55104 12.4906C3.32257 12.2622 3.20833 11.9875 3.20833 11.6667H5.54167C5.54167 11.9875 5.42743 12.2622 5.19896 12.4906C4.97049 12.7191 4.69583 12.8333 4.375 12.8333ZM2.04167 11.0833V9.91667H6.70833V11.0833H2.04167ZM2.1875 9.33333C1.51667 8.93472 0.984375 8.4 0.590625 7.72917C0.196875 7.05833 0 6.32917 0 5.54167C0 4.32639 0.425347 3.2934 1.27604 2.44271C2.12674 1.59201 3.15972 1.16667 4.375 1.16667C5.59028 1.16667 6.62326 1.59201 7.47396 2.44271C8.32465 3.2934 8.75 4.32639 8.75 5.54167C8.75 6.32917 8.55313 7.05833 8.15938 7.72917C7.76562 8.4 7.23333 8.93472 6.5625 9.33333H2.1875ZM2.5375 8.16667H6.2125C6.65 7.85556 6.98785 7.47153 7.22604 7.01458C7.46424 6.55764 7.58333 6.06667 7.58333 5.54167C7.58333 4.64722 7.27222 3.88889 6.65 3.26667C6.02778 2.64444 5.26944 2.33333 4.375 2.33333C3.48056 2.33333 2.72222 2.64444 2.1 3.26667C1.47778 3.88889 1.16667 4.64722 1.16667 5.54167C1.16667 6.06667 1.28576 6.55764 1.52396 7.01458C1.76215 7.47153 2.1 7.85556 2.5375 8.16667Z" fill="#031D4E"/>
</svg>
